<svg xmlns="http://www.w3.org/2000/svg" xmlns:xlink="http://www.w3.org/1999/xlink" id="Layer_1" x="0px" y="0px" width="2315.852px" height="844.964px" viewBox="0 0 2315.852 844.964" xml:space="preserve"><g id="Layer_2"></g><g id="Layer_1_1_">	<path fill="#FFFFFF" d="M2112.13,454.664c-15.899,0-29.065,4.313-39.517,12.938c-10.448,8.645-17.261,20.898-20.444,36.801h119.915  c-3.174-15.445-9.992-27.59-20.436-36.457C2141.2,459.089,2128.023,454.664,2112.13,454.664 M2315.852,542.554  c0,2.277-0.684,14.307-2.043,36.115h-258.912c5.451,14.08,14.533,24.871,27.254,32.357c12.72,7.504,28.623,11.244,47.697,11.244  c16.352,0,30.085-2.051,41.219-6.135c11.125-4.086,23.283-11.133,36.449-21.127l80.396,81.088  c-36.335,39.975-90.614,59.961-162.831,59.961c-44.972,0-84.49-8.301-118.556-24.871c-34.067-16.584-60.41-39.631-79.039-69.154  c-18.616-29.525-27.93-62.682-27.93-99.48c0-37.24,9.197-70.508,27.588-99.805c18.401-29.305,43.604-52.128,75.628-68.481  c32.024-16.354,68.024-24.528,108.001-24.528c37.695,0,72.103,7.495,103.213,22.48c31.121,14.99,55.869,37.024,74.268,66.085  C2306.654,467.375,2315.852,502.125,2315.852,542.554z M1667.219,454.664c-15.894,0-29.069,4.313-39.512,12.938  c-10.449,8.645-17.262,20.898-20.442,36.801h119.915c-3.184-15.445-9.996-27.59-20.444-36.457  C1696.285,459.089,1683.119,454.664,1667.219,454.664z M1353.809,376.993h81.076v99.381  c-82.161-16.227-188.277-10.156-254.305,13.037h-27.082V376.993h51.099v-2.047c0-48.601,14.533-87.094,43.604-115.482  c29.07-28.389,69.953-42.587,122.639-42.587c17.262,0,34.068,1.59,50.426,4.77c16.348,3.183,29.971,7.724,40.877,13.628  l-36.793,106.969c-12.72-5.905-24.299-8.859-34.748-8.859c-11.353,0-20.322,3.521-26.914,10.562  c-6.582,7.042-9.877,17.829-9.877,32.363v0.684H1353.809z M1063.561,376.993h81.078v112.418h-76.311v94.531l-1.113-0.018  c-42.104,0-76.23,31.625-76.23,70.641c0,39.014,34.127,70.637,76.23,70.637h1.113v4.035H914.345V489.412h-51.099V376.993h51.099  v-2.047c0-48.601,14.541-87.094,43.607-115.482c29.069-28.389,69.953-42.587,122.642-42.587c17.262,0,34.064,1.59,50.418,4.77  c16.354,3.183,29.98,7.724,40.876,13.628L1135.1,342.244c-12.72-5.905-24.299-8.859-34.749-8.859  c-11.355,0-20.322,3.521-26.911,10.562c-6.588,7.042-9.881,17.829-9.881,32.363v0.684H1063.561z M632.279,616.138  c17.711,0,32.251-6.479,43.604-19.418c11.356-12.939,17.031-30.99,17.031-54.166c0-23.162-5.675-41.098-17.031-53.826  c-11.353-12.711-25.893-19.074-43.604-19.074c-17.719,0-32.251,6.363-43.604,19.074c-11.355,12.729-17.038,30.664-17.038,53.826  c0,23.176,5.683,41.227,17.038,54.166C600.028,609.66,614.561,616.138,632.279,616.138z M632.279,736.058  c-41.333,0-78.471-8.301-111.398-24.869c-32.931-16.584-58.708-39.518-77.33-68.814c-18.625-29.297-27.937-62.582-27.937-99.82  s9.312-70.508,27.937-99.805c18.621-29.305,44.398-52.128,77.33-68.481c32.928-16.354,70.065-24.528,111.398-24.528  c41.787,0,79.146,8.175,112.074,24.528c32.936,16.353,58.602,39.177,76.995,68.481c18.398,29.297,27.592,62.564,27.592,99.805  c0,37.238-9.193,70.523-27.592,99.82c-18.394,29.297-44.06,52.23-76.995,68.814C711.426,727.757,674.065,736.058,632.279,736.058z   M1550.16,705.46c-8.698,75.031-35.596,131.102-121.362,138.914c65.21,5.664,144.378-29.053,159.223-122.363  c27.637,9.359,58.35,14.047,92.146,14.047c72.225,0,126.507-19.986,162.842-59.959l-80.396-81.088  c-13.176,9.994-25.324,17.041-36.457,21.127c-11.126,4.084-24.871,6.135-41.221,6.135c-19.075,0-34.977-3.742-47.688-11.246  c-12.72-7.486-21.802-18.277-27.253-32.357h258.9c1.366-21.809,2.044-33.838,2.044-36.115c0-40.43-9.197-75.18-27.588-104.248  c-18.401-29.061-43.157-51.095-74.269-66.085c-31.12-14.985-65.521-22.48-103.223-22.48c-39.974,0-75.97,8.175-107.99,24.529  c-32.024,16.352-57.237,39.176-75.628,68.48c-8,12.727-14.258,26.221-18.774,40.461c35.962,10.32,64.723,25.848,79.339,47.152  c7.008,7.455,10.879,110.465,7.363,174.854l0.456,0.244H1550.16L1550.16,705.46z M1067.215,625.333  c17.417,0,31.543,13.086,31.543,29.232c0,16.145-14.125,29.229-31.543,29.229c-17.425,0-31.543-13.086-31.543-29.229  C1035.672,638.419,1049.791,625.333,1067.215,625.333z M220.072,736.058c-42.24,0-80.057-8.188-113.441-24.527  c-33.388-16.357-59.504-39.289-78.355-68.814C9.427,613.191,0,579.792,0,542.554c0-37.24,9.427-70.508,28.275-99.805  c18.851-29.306,44.967-52.129,78.355-68.482c33.384-16.354,71.202-24.528,113.441-24.528c45.421,0,84.256,9.766,116.507,29.297  c32.248,19.531,54.506,46.557,66.769,81.079l-119.23,58.594c-14.534-32.697-36.112-49.055-64.729-49.055  c-18.167,0-33.269,6.363-45.309,19.074c-12.032,12.729-18.052,30.664-18.052,53.826c0,23.615,6.02,41.797,18.052,54.508  c12.04,12.711,27.142,19.076,45.309,19.076c28.617,0,50.195-16.357,64.729-49.057l119.23,58.594  c-12.263,34.521-34.521,61.557-66.769,81.088C304.328,726.292,265.493,736.058,220.072,736.058z"></path>	<path fill="#E6E7E8" d="M1428.798,844.375c60.376-23.877,97.381-67.691,100.806-140.184l-1.123-189.439  c6.056,5.176,11.614,10.824,15.546,17.953c9.047,45.279,8.618,107.113,6.143,172.51  C1545.271,790.876,1500.722,840.712,1428.798,844.375"></path>	<path fill="#ECB65C" d="M1148.804,562.361c34.438-64.26,315.907-63.086,364.011,0  C1448.444,622.013,1200.513,604.695,1148.804,562.361z"></path>	<path fill="#ECB65C" d="M1308.154,0c43.75,66.666-77.086,107.291,0,181.253C1288.452,114.176,1400.861,47.921,1308.154,0z"></path>	<path fill="#ECB65C" d="M1385.236,25.003c37.5,66.667-73.976,110.77,0,181.25C1365.534,139.176,1476.9,76.046,1385.236,25.003z"></path>	<path fill="#ECB65C" d="M1224.39,35.421c37.5,66.665-72.918,105.208,0,181.25C1204.688,149.592,1315.015,76.046,1224.39,35.421z"></path></g></svg>